<?xml version="1.0" standalone="no"?>
<!DOCTYPE svg PUBLIC "-//W3C//DTD SVG 20010904//EN"
 "http://www.w3.org/TR/2001/REC-SVG-20010904/DTD/svg10.dtd">
<svg version="1.0" xmlns="http://www.w3.org/2000/svg"
 width="500.000000pt" height="500.000000pt" viewBox="0 0 500.000000 500.000000"
 preserveAspectRatio="xMidYMid meet">
<metadata>
Created by potrace 1.14, written by Peter Selinger 2001-2017
</metadata>
<g transform="translate(0.000000,500.000000) scale(0.100000,-0.100000)"
fill="#000000" stroke="none">
<path d="M133 4976 c-57 -27 -106 -84 -124 -145 -7 -25 -9 -775 -7 -2352 l3
-2316 30 -49 c19 -30 49 -60 79 -79 l49 -30 2341 0 c2245 0 2342 1 2374 18 50
27 100 83 112 125 8 26 10 743 8 2373 l-3 2336 -29 42 c-16 23 -50 54 -75 69
l-46 27 -2330 2 -2330 3 -52 -24z"/>
</g>
</svg>
