<svg xmlns="http://www.w3.org/2000/svg" xmlns:xlink="http://www.w3.org/1999/xlink" width="500" zoomAndPan="magnify" viewBox="0 0 375 374.999991" height="500" preserveAspectRatio="xMidYMid meet" version="1.0"><defs><g/><clipPath id="7367b2675b"><path d="M 263 119.539062 L 282.527344 119.539062 L 282.527344 137 L 263 137 Z M 263 119.539062 " clip-rule="nonzero"/></clipPath></defs><g fill="#2b2b2b" fill-opacity="1"><g transform="translate(99.96656, 211.542305)"><g><path d="M 35.4375 0 L 33.5625 -23.34375 L 33.328125 -23.34375 L 25.265625 -0.234375 L 19.90625 -0.234375 L 11.84375 -23.34375 L 11.609375 -23.34375 L 9.734375 0 L 0.765625 0 L 4.296875 -39.390625 L 13.84375 -39.390625 L 22.578125 -16.671875 L 31.328125 -39.390625 L 40.875 -39.390625 L 44.40625 0 Z M 35.4375 0 "/></g></g></g><g fill="#2b2b2b" fill-opacity="1"><g transform="translate(139.448042, 211.542305)"><g><path d="M 27.640625 -11.078125 L 9.890625 -11.078125 C 9.890625 -9.359375 10.445312 -8.082031 11.5625 -7.25 C 12.675781 -6.425781 13.882812 -6.015625 15.1875 -6.015625 C 16.550781 -6.015625 17.628906 -6.195312 18.421875 -6.5625 C 19.222656 -6.925781 20.132812 -7.648438 21.15625 -8.734375 L 27.265625 -5.6875 C 24.710938 -1.414062 20.476562 0.71875 14.5625 0.71875 C 10.875 0.71875 7.707031 -0.546875 5.0625 -3.078125 C 2.414062 -5.609375 1.09375 -8.65625 1.09375 -12.21875 C 1.09375 -15.789062 2.414062 -18.847656 5.0625 -21.390625 C 7.707031 -23.941406 10.875 -25.21875 14.5625 -25.21875 C 18.445312 -25.21875 21.601562 -24.09375 24.03125 -21.84375 C 26.46875 -19.601562 27.6875 -16.394531 27.6875 -12.21875 C 27.6875 -11.644531 27.671875 -11.265625 27.640625 -11.078125 Z M 10.125 -15.75 L 19.4375 -15.75 C 19.238281 -17.03125 18.734375 -18.007812 17.921875 -18.6875 C 17.117188 -19.375 16.078125 -19.71875 14.796875 -19.71875 C 13.398438 -19.71875 12.285156 -19.351562 11.453125 -18.625 C 10.628906 -17.894531 10.1875 -16.9375 10.125 -15.75 Z M 10.125 -15.75 "/></g></g></g><g fill="#2b2b2b" fill-opacity="1"><g transform="translate(162.553934, 211.542305)"><g><path d="M 2.859375 0 L 2.859375 -41.0625 L 11.3125 -41.0625 L 11.3125 0 Z M 2.859375 0 "/></g></g></g><g fill="#2b2b2b" fill-opacity="1"><g transform="translate(171.050697, 211.542305)"><g><path d="M 5.171875 -2.90625 C 2.453125 -5.332031 1.09375 -8.4375 1.09375 -12.21875 C 1.09375 -16.007812 2.507812 -19.125 5.34375 -21.5625 C 8.175781 -24 11.679688 -25.21875 15.859375 -25.21875 C 19.960938 -25.21875 23.421875 -23.988281 26.234375 -21.53125 C 29.054688 -19.082031 30.46875 -15.976562 30.46875 -12.21875 C 30.46875 -8.46875 29.085938 -5.375 26.328125 -2.9375 C 23.578125 -0.5 20.085938 0.71875 15.859375 0.71875 C 11.460938 0.71875 7.898438 -0.488281 5.171875 -2.90625 Z M 11.71875 -16.375 C 10.625 -15.289062 10.078125 -13.90625 10.078125 -12.21875 C 10.078125 -10.53125 10.601562 -9.15625 11.65625 -8.09375 C 12.707031 -7.03125 14.09375 -6.5 15.8125 -6.5 C 17.457031 -6.5 18.8125 -7.035156 19.875 -8.109375 C 20.945312 -9.191406 21.484375 -10.5625 21.484375 -12.21875 C 21.484375 -13.90625 20.929688 -15.289062 19.828125 -16.375 C 18.734375 -17.457031 17.394531 -18 15.8125 -18 C 14.1875 -18 12.820312 -17.457031 11.71875 -16.375 Z M 11.71875 -16.375 "/></g></g></g><g fill="#2b2b2b" fill-opacity="1"><g transform="translate(196.925638, 211.542305)"><g><path d="M 4.53125 -3.03125 C 2.238281 -5.53125 1.09375 -8.59375 1.09375 -12.21875 C 1.09375 -15.851562 2.238281 -18.925781 4.53125 -21.4375 C 6.820312 -23.957031 9.738281 -25.21875 13.28125 -25.21875 C 16.519531 -25.21875 19.191406 -24.195312 21.296875 -22.15625 L 21.296875 -41.0625 L 29.75 -41.0625 L 29.75 0 L 21.390625 0 L 21.390625 -2.765625 L 21.296875 -2.765625 C 19.191406 -0.441406 16.519531 0.71875 13.28125 0.71875 C 9.738281 0.71875 6.820312 -0.53125 4.53125 -3.03125 Z M 11.71875 -16.375 C 10.625 -15.289062 10.078125 -13.90625 10.078125 -12.21875 C 10.078125 -10.53125 10.601562 -9.15625 11.65625 -8.09375 C 12.707031 -7.03125 14.09375 -6.5 15.8125 -6.5 C 17.457031 -6.5 18.8125 -7.035156 19.875 -8.109375 C 20.945312 -9.191406 21.484375 -10.5625 21.484375 -12.21875 C 21.484375 -13.90625 20.929688 -15.289062 19.828125 -16.375 C 18.734375 -17.457031 17.394531 -18 15.8125 -18 C 14.1875 -18 12.820312 -17.457031 11.71875 -16.375 Z M 11.71875 -16.375 "/></g></g></g><g fill="#2b2b2b" fill-opacity="1"><g transform="translate(223.850918, 211.542305)"><g><path d="M 3.671875 -38.140625 C 4.660156 -39.128906 5.835938 -39.625 7.203125 -39.625 C 8.578125 -39.625 9.753906 -39.128906 10.734375 -38.140625 C 11.722656 -37.160156 12.21875 -35.984375 12.21875 -34.609375 C 12.21875 -33.242188 11.722656 -32.066406 10.734375 -31.078125 C 9.753906 -30.097656 8.578125 -29.609375 7.203125 -29.609375 C 5.835938 -29.609375 4.660156 -30.097656 3.671875 -31.078125 C 2.691406 -32.066406 2.203125 -33.242188 2.203125 -34.609375 C 2.203125 -35.984375 2.691406 -37.160156 3.671875 -38.140625 Z M 2.859375 -24.5 L 2.859375 0 L 11.3125 0 L 11.3125 -24.5 Z M 2.859375 -24.5 "/></g></g></g><g fill="#2b2b2b" fill-opacity="1"><g transform="translate(232.586398, 211.542305)"><g><path d="M 4.296875 -24.5 L 4.296875 -29.703125 C 4.328125 -33.359375 5.1875 -36.285156 6.875 -38.484375 C 8.5625 -40.679688 10.898438 -41.78125 13.890625 -41.78125 C 15.171875 -41.78125 16.390625 -41.597656 17.546875 -41.234375 C 18.710938 -40.867188 19.550781 -40.492188 20.0625 -40.109375 L 20.859375 -39.578125 L 17.90625 -33.609375 C 17.144531 -34.054688 16.300781 -34.28125 15.375 -34.28125 C 14.320312 -34.28125 13.617188 -33.921875 13.265625 -33.203125 C 12.921875 -32.492188 12.75 -31.25 12.75 -29.46875 L 12.75 -24.5 L 18.390625 -24.5 L 18.390625 -18.046875 L 12.75 -18.046875 L 12.75 0 L 4.296875 0 L 4.296875 -18.046875 L 0.765625 -18.046875 L 0.765625 -24.5 Z M 4.296875 -24.5 "/></g></g></g><g fill="#2b2b2b" fill-opacity="1"><g transform="translate(244.807062, 211.542305)"><g><path d="M 21.4375 -24.5 L 31.1875 -24.5 L 11.9375 12.421875 L 2.203125 12.421875 L 10.640625 -3.8125 L -0.953125 -24.5 L 8.78125 -24.5 L 15.609375 -11.9375 Z M 21.4375 -24.5 "/></g></g></g><g clip-path="url(#7367b2675b)"><path fill="#2b2b2b" d="M 268 119.976562 C 270.722656 119.542969 273.183594 121.367188 274.554688 123.578125 C 276.917969 123.273438 279.554688 123.992188 280.992188 126 C 282.640625 128.171875 282.3125 131.476562 280.347656 133.347656 C 277.152344 136.324219 272.328125 136.699219 268.195312 136.261719 C 265.691406 133.46875 263.386719 130.050781 263.140625 126.195312 C 262.917969 123.289062 265.039062 120.324219 268 119.976562 Z M 268 119.976562 " fill-opacity="1" fill-rule="nonzero"/></g><path fill="#2b2b2b" d="M 244.960938 137.792969 C 245.0625 135.195312 247.988281 133.257812 250.421875 134.171875 C 254.132812 135.363281 257.824219 136.625 261.519531 137.851562 C 263.316406 138.335938 264.683594 140.070312 264.625 141.949219 C 264.640625 148.847656 264.652344 155.746094 264.621094 162.648438 C 264.667969 167.042969 259.902344 170.5625 255.707031 169.21875 C 251.410156 168.175781 249.152344 162.707031 251.476562 158.941406 C 253.425781 155.289062 258.5625 154.328125 261.84375 156.753906 C 261.796875 153.355469 261.835938 149.949219 261.824219 146.550781 C 257.128906 144.988281 252.433594 143.421875 247.738281 141.855469 C 247.714844 147.019531 247.792969 152.1875 247.703125 157.351562 C 247.554688 161.75 242.621094 165.019531 238.5 163.496094 C 234.34375 162.273438 232.304688 156.886719 234.628906 153.230469 C 236.601562 149.632812 241.6875 148.71875 244.941406 151.128906 C 244.945312 146.679688 244.867188 142.234375 244.960938 137.792969 Z M 244.960938 137.792969 " fill-opacity="1" fill-rule="nonzero"/><path fill="#2b2b2b" d="M 273.113281 146.703125 C 273.085938 145.179688 274.839844 144.039062 276.230469 144.632812 C 278.554688 145.40625 280.59375 147.191406 281.523438 149.480469 C 281.875 150.742188 280.035156 151.828125 279.195312 150.757812 C 278.316406 149.457031 277.355469 148.210938 275.964844 147.429688 C 275.785156 150.734375 276.015625 154.050781 275.839844 157.355469 C 275.628906 159.992188 272.535156 161.796875 270.125 160.730469 C 267.667969 159.847656 266.636719 156.539062 268.175781 154.433594 C 269.203125 152.800781 271.296875 152.289062 273.089844 152.738281 C 273.105469 150.726562 273.03125 148.714844 273.113281 146.703125 Z M 273.113281 146.703125 " fill-opacity="1" fill-rule="nonzero"/><path fill="#2b2b2b" d="M 252.617188 122.824219 C 252.601562 121.980469 253.570312 121.351562 254.34375 121.675781 C 255.628906 122.105469 256.757812 123.09375 257.273438 124.359375 C 257.46875 125.058594 256.449219 125.660156 255.984375 125.066406 C 255.5 124.347656 254.96875 123.65625 254.195312 123.226562 C 254.097656 125.054688 254.226562 126.890625 254.128906 128.71875 C 254.011719 130.179688 252.300781 131.179688 250.964844 130.585938 C 249.605469 130.097656 249.035156 128.265625 249.886719 127.101562 C 250.457031 126.199219 251.613281 125.914062 252.605469 126.164062 C 252.613281 125.050781 252.570312 123.9375 252.617188 122.824219 Z M 252.617188 122.824219 " fill-opacity="1" fill-rule="nonzero"/></svg>