<svg xmlns="http://www.w3.org/2000/svg" xmlns:xlink="http://www.w3.org/1999/xlink" width="500" zoomAndPan="magnify" viewBox="0 0 375 374.999991" height="500" preserveAspectRatio="xMidYMid meet" version="1.0"><defs><clipPath id="59a84a0a42"><path d="M 193 162 L 212.554688 162 L 212.554688 179 L 193 179 Z M 193 162 " clip-rule="nonzero"/></clipPath></defs><g clip-path="url(#59a84a0a42)"><path fill="#2b2b2b" d="M 198.027344 162.421875 C 200.746094 161.988281 203.210938 163.8125 204.582031 166.023438 C 206.945312 165.722656 209.578125 166.441406 211.015625 168.449219 C 212.667969 170.617188 212.335938 173.921875 210.375 175.792969 C 207.179688 178.769531 202.355469 179.144531 198.222656 178.707031 C 195.714844 175.914062 193.414062 172.5 193.167969 168.640625 C 192.941406 165.734375 195.066406 162.773438 198.027344 162.421875 Z M 198.027344 162.421875 " fill-opacity="1" fill-rule="nonzero"/></g><path fill="#2b2b2b" d="M 174.988281 180.238281 C 175.089844 177.640625 178.015625 175.703125 180.449219 176.617188 C 184.160156 177.8125 187.851562 179.074219 191.546875 180.296875 C 193.34375 180.785156 194.710938 182.515625 194.652344 184.394531 C 194.667969 191.292969 194.679688 198.191406 194.648438 205.09375 C 194.695312 209.488281 189.925781 213.011719 185.734375 211.664062 C 181.433594 210.625 179.179688 205.152344 181.503906 201.386719 C 183.453125 197.734375 188.589844 196.773438 191.871094 199.203125 C 191.824219 195.800781 191.863281 192.394531 191.847656 188.996094 C 187.15625 187.433594 182.460938 185.871094 177.765625 184.300781 C 177.738281 189.464844 177.820312 194.636719 177.730469 199.800781 C 177.582031 204.199219 172.648438 207.464844 168.523438 205.941406 C 164.367188 204.722656 162.332031 199.335938 164.65625 195.675781 C 166.628906 192.078125 171.714844 191.167969 174.96875 193.574219 C 174.972656 189.128906 174.894531 184.679688 174.988281 180.238281 Z M 174.988281 180.238281 " fill-opacity="1" fill-rule="nonzero"/><path fill="#2b2b2b" d="M 203.136719 189.148438 C 203.113281 187.628906 204.863281 186.488281 206.257812 187.078125 C 208.582031 187.855469 210.621094 189.640625 211.550781 191.925781 C 211.902344 193.1875 210.058594 194.277344 209.222656 193.203125 C 208.34375 191.902344 207.382812 190.65625 205.988281 189.875 C 205.808594 193.183594 206.042969 196.5 205.867188 199.804688 C 205.65625 202.4375 202.5625 204.246094 200.148438 203.175781 C 197.695312 202.296875 196.664062 198.984375 198.203125 196.878906 C 199.230469 195.246094 201.320312 194.734375 203.117188 195.183594 C 203.132812 193.171875 203.058594 191.160156 203.136719 189.148438 Z M 203.136719 189.148438 " fill-opacity="1" fill-rule="nonzero"/><path fill="#2b2b2b" d="M 182.644531 165.269531 C 182.628906 164.425781 183.597656 163.796875 184.371094 164.121094 C 185.65625 164.550781 186.785156 165.539062 187.300781 166.804688 C 187.496094 167.503906 186.476562 168.105469 186.011719 167.511719 C 185.523438 166.792969 184.992188 166.105469 184.222656 165.671875 C 184.121094 167.5 184.25 169.335938 184.15625 171.167969 C 184.039062 172.625 182.324219 173.625 180.988281 173.035156 C 179.628906 172.546875 179.0625 170.714844 179.910156 169.546875 C 180.480469 168.644531 181.640625 168.359375 182.632812 168.609375 C 182.640625 167.496094 182.597656 166.382812 182.644531 165.269531 Z M 182.644531 165.269531 " fill-opacity="1" fill-rule="nonzero"/></svg>